<?xml version="1.0" standalone="no"?>
<!DOCTYPE svg PUBLIC "-//W3C//DTD SVG 1.1//EN" "http://www.w3.org/Graphics/SVG/1.1/DTD/svg11.dtd">
<svg width="100%" height="100%" viewBox="0 0 196 60" version="1.1" xmlns="http://www.w3.org/2000/svg" xmlns:xlink="http://www.w3.org/1999/xlink" xml:space="preserve" style="fill-rule:evenodd;clip-rule:evenodd;stroke-linejoin:round;stroke-miterlimit:1.41421;">
    <rect x="-0.784" y="-1.853" width="234.463" height="67.29" style="fill:white;"/>
    <g transform="matrix(0.823443,0,0,0.823443,-3.47638,5.89008)">
        <path d="M11.347,57.903L11.347,-5.612L54.718,39.761L54.718,-1.568L63.692,-1.568L63.692,61.523L20.322,16.265L20.322,57.903L11.347,57.903Z" style="fill:rgb(99,125,157);fill-rule:nonzero;stroke-width:1.21px;stroke:rgb(66,87,112);"/>
        <path d="M80.948,-1.568L97.395,39.645L114.073,-1.568L123.895,-1.568L97.202,62.371L71.126,-1.568L80.948,-1.568Z" style="fill:rgb(99,125,157);fill-rule:nonzero;stroke-width:1.21px;stroke:rgb(66,87,112);"/>
        <path d="M125.705,27.898C125.705,19.527 128.774,12.337 134.911,6.328C141.022,0.319 148.366,-2.685 156.943,-2.685C165.416,-2.685 172.683,0.345 178.743,6.405C184.829,12.465 187.872,19.745 187.872,28.244C187.872,36.795 184.816,44.049 178.705,50.007C172.568,55.99 165.16,58.981 156.48,58.981C148.803,58.981 141.908,56.323 135.797,51.008C129.069,45.128 125.705,37.424 125.705,27.898ZM134.757,28.013C134.757,34.587 136.965,39.992 141.382,44.229C145.773,48.466 150.844,50.584 156.596,50.584C162.836,50.584 168.1,48.427 172.388,44.113C176.676,39.748 178.82,34.433 178.82,28.167C178.82,21.825 176.702,16.509 172.465,12.221C168.254,7.907 163.041,5.75 156.827,5.75C150.639,5.75 145.413,7.907 141.151,12.221C136.888,16.484 134.757,21.748 134.757,28.013Z" style="fill:rgb(99,125,157);fill-rule:nonzero;stroke-width:1.21px;stroke:rgb(66,87,112);"/>
        <path d="M207.939,32.212L188.527,-1.568L198.849,-1.568L212.446,22.197L226.081,-1.568L236.404,-1.568L216.914,32.212L216.914,57.903L207.939,57.903L207.939,32.212Z" style="fill:rgb(99,125,157);fill-rule:nonzero;stroke-width:1.21px;stroke:rgb(66,87,112);"/>
    </g>
    <g transform="matrix(0.586161,0.810194,-0.810194,0.586161,125.637,29.2587)">
        <circle cx="0" cy="0" r="4.196" style="fill:rgb(66,87,112);stroke-width:1px;stroke:rgb(66,87,112);"/>
    </g>
    <g transform="matrix(1,0,0,1,-15.3028,4.74128)">
        <path d="M140.94,29.259L156.31,60L125.569,60L140.94,29.259Z" style="fill:white;"/>
    </g>
    <g transform="matrix(-0.193456,0.543312,0.537005,0.19121,145.238,-24.8959)">
        <path d="M132.797,29.621L132.814,29.564L132.827,29.505L132.836,29.446L132.841,29.387L132.842,29.327L132.839,29.267L132.832,29.207L132.821,29.149L132.806,29.091L132.787,29.034L132.765,28.979L132.739,28.925L132.709,28.873L132.675,28.824L132.639,28.776L132.599,28.732L130.212,26.229L128.99,24.945L128.697,24.635L128.556,24.485L128.536,24.46L128.508,24.426L128.454,24.367L128.303,24.205L128.013,23.899L126.812,22.635L124.456,20.161L124.414,20.12L124.368,20.081L124.321,20.046L124.271,20.013L124.219,19.985L124.165,19.96L124.109,19.939L124.053,19.922L123.995,19.908L123.936,19.899L123.877,19.894L123.818,19.893L123.759,19.896L123.7,19.903L123.642,19.914L123.585,19.929L123.529,19.948L123.474,19.971L123.421,19.998L123.37,20.028L123.321,20.061L123.274,20.098L123.23,20.138L123.189,20.181L123.151,20.227L123.116,20.275L123.084,20.326L123.056,20.379L123.031,20.433L123.01,20.489L122.993,20.547L122.98,20.605L122.971,20.664L122.966,20.724L122.965,20.784L122.968,20.844L122.975,20.903L122.986,20.962L123.001,21.02L123.02,21.077L123.042,21.132L123.068,21.186L123.098,21.237L123.132,21.287L123.168,21.334L123.208,21.379L125.563,23.851L126.762,25.113L127.047,25.415L127.179,25.556L127.197,25.58L127.23,25.619L127.287,25.681L127.442,25.846L127.74,26.16L128.963,27.446L131.352,29.95L131.394,29.992L131.439,30.03L131.487,30.066L131.537,30.098L131.589,30.126L131.643,30.151L131.698,30.172L131.755,30.189L131.813,30.203L131.871,30.212L131.93,30.217L131.99,30.218L132.049,30.215L132.107,30.208L132.166,30.197L132.223,30.182L132.279,30.163L132.334,30.14L132.387,30.113L132.438,30.083L132.487,30.049L132.533,30.012L132.577,29.972L132.619,29.929L132.657,29.883L132.692,29.835L132.723,29.785L132.752,29.732L132.776,29.677L132.797,29.621ZM127.557,25.84L127.557,25.84L127.537,25.832L127.517,25.823L127.557,25.84Z" style="fill:rgb(66,87,112);"/>
    </g>
    <g transform="matrix(0.193456,0.543312,-0.537005,0.19121,106.084,-24.8959)">
        <path d="M132.797,29.621L132.776,29.677L132.752,29.732L132.723,29.785L132.692,29.835L132.657,29.883L132.619,29.929L132.577,29.972L132.533,30.012L132.487,30.049L132.438,30.083L132.387,30.113L132.334,30.14L132.279,30.163L132.223,30.182L132.166,30.197L132.107,30.208L132.049,30.215L131.99,30.218L131.93,30.217L131.871,30.212L131.813,30.203L131.755,30.189L131.698,30.172L131.643,30.151L131.589,30.126L131.537,30.098L131.487,30.066L131.439,30.03L131.394,29.992L131.352,29.95L128.963,27.446L127.74,26.16L127.442,25.846L127.287,25.681L127.23,25.619L127.197,25.58L127.179,25.556L127.047,25.415L126.762,25.113L125.563,23.851L123.208,21.379L123.168,21.334L123.132,21.287L123.098,21.237L123.068,21.186L123.042,21.132L123.02,21.077L123.001,21.02L122.986,20.962L122.975,20.903L122.968,20.844L122.965,20.784L122.966,20.724L122.971,20.664L122.98,20.605L122.993,20.547L123.01,20.489L123.031,20.433L123.056,20.379L123.084,20.326L123.116,20.275L123.151,20.227L123.189,20.181L123.23,20.138L123.274,20.098L123.321,20.061L123.37,20.028L123.421,19.998L123.474,19.971L123.529,19.948L123.585,19.929L123.642,19.914L123.7,19.903L123.759,19.896L123.818,19.893L123.877,19.894L123.936,19.899L123.995,19.908L124.053,19.922L124.109,19.939L124.165,19.96L124.219,19.985L124.271,20.013L124.321,20.046L124.368,20.081L124.414,20.12L124.456,20.161L126.812,22.635L128.013,23.899L128.303,24.206L128.454,24.367L128.508,24.426L128.536,24.459L128.556,24.485L128.697,24.635L128.99,24.945L130.212,26.229L132.599,28.732L132.639,28.776L132.675,28.824L132.709,28.873L132.739,28.925L132.765,28.979L132.787,29.034L132.806,29.091L132.821,29.149L132.832,29.207L132.839,29.267L132.842,29.327L132.841,29.387L132.836,29.446L132.827,29.505L132.814,29.564L132.797,29.621ZM127.557,25.84L127.517,25.823L127.537,25.832L127.557,25.84L127.557,25.84Z" style="fill:rgb(66,87,112);"/>
    </g>
</svg>
